<mxfile host="app.diagrams.net" modified="2021-04-12T10:19:07.053Z" agent="5.0 (Macintosh; Intel Mac OS X 11_2_3) AppleWebKit/537.36 (KHTML, like Gecko) Chrome/89.0.4389.114 Safari/537.36" etag="NPYDR3S-VQphxX8wZTuP" version="14.5.10" type="github">
  <diagram id="sEWmRMSA0RbTOiHDTgDL" name="Page-1">
    <mxGraphModel dx="1106" dy="614" grid="1" gridSize="10" guides="1" tooltips="1" connect="1" arrows="1" fold="1" page="0" pageScale="1" pageWidth="827" pageHeight="1169" math="0" shadow="0">
      <root>
        <mxCell id="0" />
        <mxCell id="1" parent="0" />
        <mxCell id="PxN26HUbAXa41XjV211Z-6" value="" style="group" vertex="1" connectable="0" parent="1">
          <mxGeometry x="110" y="140" width="650" height="60" as="geometry" />
        </mxCell>
        <mxCell id="PxN26HUbAXa41XjV211Z-1" value="&lt;font style=&quot;font-size: 20px&quot;&gt;&lt;b&gt;版本号&lt;/b&gt;&lt;/font&gt;" style="rounded=0;whiteSpace=wrap;html=1;" vertex="1" parent="PxN26HUbAXa41XjV211Z-6">
          <mxGeometry x="170" width="120" height="60" as="geometry" />
        </mxCell>
        <mxCell id="PxN26HUbAXa41XjV211Z-2" value="&lt;font style=&quot;font-size: 20px&quot;&gt;&lt;b&gt;输入&lt;/b&gt;&lt;/font&gt;" style="rounded=0;whiteSpace=wrap;html=1;" vertex="1" parent="PxN26HUbAXa41XjV211Z-6">
          <mxGeometry x="290" width="120" height="60" as="geometry" />
        </mxCell>
        <mxCell id="PxN26HUbAXa41XjV211Z-3" value="&lt;font style=&quot;font-size: 20px&quot;&gt;&lt;b&gt;输出&lt;/b&gt;&lt;/font&gt;" style="rounded=0;whiteSpace=wrap;html=1;" vertex="1" parent="PxN26HUbAXa41XjV211Z-6">
          <mxGeometry x="410" width="120" height="60" as="geometry" />
        </mxCell>
        <mxCell id="PxN26HUbAXa41XjV211Z-4" value="&lt;font style=&quot;font-size: 20px&quot;&gt;&lt;b&gt;锁定时间&lt;/b&gt;&lt;/font&gt;" style="rounded=0;whiteSpace=wrap;html=1;" vertex="1" parent="PxN26HUbAXa41XjV211Z-6">
          <mxGeometry x="530" width="120" height="60" as="geometry" />
        </mxCell>
        <mxCell id="PxN26HUbAXa41XjV211Z-5" value="&lt;font style=&quot;font-size: 20px&quot;&gt;交易0 &lt;br&gt;主要组成部分&lt;/font&gt;" style="text;html=1;strokeColor=none;fillColor=none;align=center;verticalAlign=middle;whiteSpace=wrap;rounded=0;" vertex="1" parent="PxN26HUbAXa41XjV211Z-6">
          <mxGeometry width="170" height="60" as="geometry" />
        </mxCell>
        <mxCell id="PxN26HUbAXa41XjV211Z-7" value="" style="group" vertex="1" connectable="0" parent="1">
          <mxGeometry x="110" y="240" width="650" height="60" as="geometry" />
        </mxCell>
        <mxCell id="PxN26HUbAXa41XjV211Z-8" value="&lt;font style=&quot;font-size: 20px&quot;&gt;&lt;b&gt;版本号&lt;/b&gt;&lt;/font&gt;" style="rounded=0;whiteSpace=wrap;html=1;" vertex="1" parent="PxN26HUbAXa41XjV211Z-7">
          <mxGeometry x="170" width="120" height="60" as="geometry" />
        </mxCell>
        <mxCell id="PxN26HUbAXa41XjV211Z-9" value="&lt;font style=&quot;font-size: 20px&quot;&gt;&lt;b&gt;输入&lt;/b&gt;&lt;/font&gt;" style="rounded=0;whiteSpace=wrap;html=1;" vertex="1" parent="PxN26HUbAXa41XjV211Z-7">
          <mxGeometry x="290" width="120" height="60" as="geometry" />
        </mxCell>
        <mxCell id="PxN26HUbAXa41XjV211Z-10" value="&lt;font style=&quot;font-size: 20px&quot;&gt;&lt;b&gt;输出&lt;/b&gt;&lt;/font&gt;" style="rounded=0;whiteSpace=wrap;html=1;" vertex="1" parent="PxN26HUbAXa41XjV211Z-7">
          <mxGeometry x="410" width="120" height="60" as="geometry" />
        </mxCell>
        <mxCell id="PxN26HUbAXa41XjV211Z-11" value="&lt;font style=&quot;font-size: 20px&quot;&gt;&lt;b&gt;锁定时间&lt;/b&gt;&lt;/font&gt;" style="rounded=0;whiteSpace=wrap;html=1;" vertex="1" parent="PxN26HUbAXa41XjV211Z-7">
          <mxGeometry x="530" width="120" height="60" as="geometry" />
        </mxCell>
        <mxCell id="PxN26HUbAXa41XjV211Z-12" value="&lt;font style=&quot;font-size: 20px&quot;&gt;交易1&lt;br&gt;主要组成部分&lt;/font&gt;" style="text;html=1;strokeColor=none;fillColor=none;align=center;verticalAlign=middle;whiteSpace=wrap;rounded=0;" vertex="1" parent="PxN26HUbAXa41XjV211Z-7">
          <mxGeometry width="170" height="60" as="geometry" />
        </mxCell>
        <mxCell id="PxN26HUbAXa41XjV211Z-13" style="rounded=0;orthogonalLoop=1;jettySize=auto;html=1;exitX=0.5;exitY=1;exitDx=0;exitDy=0;entryX=0.5;entryY=0;entryDx=0;entryDy=0;" edge="1" parent="1" source="PxN26HUbAXa41XjV211Z-3" target="PxN26HUbAXa41XjV211Z-9">
          <mxGeometry relative="1" as="geometry" />
        </mxCell>
        <mxCell id="PxN26HUbAXa41XjV211Z-14" value="" style="group" vertex="1" connectable="0" parent="1">
          <mxGeometry x="110" y="340" width="650" height="60" as="geometry" />
        </mxCell>
        <mxCell id="PxN26HUbAXa41XjV211Z-15" value="&lt;font style=&quot;font-size: 20px&quot;&gt;&lt;b&gt;版本号&lt;/b&gt;&lt;/font&gt;" style="rounded=0;whiteSpace=wrap;html=1;" vertex="1" parent="PxN26HUbAXa41XjV211Z-14">
          <mxGeometry x="170" width="120" height="60" as="geometry" />
        </mxCell>
        <mxCell id="PxN26HUbAXa41XjV211Z-16" value="&lt;font style=&quot;font-size: 20px&quot;&gt;&lt;b&gt;输入&lt;/b&gt;&lt;/font&gt;" style="rounded=0;whiteSpace=wrap;html=1;" vertex="1" parent="PxN26HUbAXa41XjV211Z-14">
          <mxGeometry x="290" width="120" height="60" as="geometry" />
        </mxCell>
        <mxCell id="PxN26HUbAXa41XjV211Z-17" value="&lt;font style=&quot;font-size: 20px&quot;&gt;&lt;b&gt;输出&lt;/b&gt;&lt;/font&gt;" style="rounded=0;whiteSpace=wrap;html=1;" vertex="1" parent="PxN26HUbAXa41XjV211Z-14">
          <mxGeometry x="410" width="120" height="60" as="geometry" />
        </mxCell>
        <mxCell id="PxN26HUbAXa41XjV211Z-18" value="&lt;font style=&quot;font-size: 20px&quot;&gt;&lt;b&gt;锁定时间&lt;/b&gt;&lt;/font&gt;" style="rounded=0;whiteSpace=wrap;html=1;" vertex="1" parent="PxN26HUbAXa41XjV211Z-14">
          <mxGeometry x="530" width="120" height="60" as="geometry" />
        </mxCell>
        <mxCell id="PxN26HUbAXa41XjV211Z-19" value="&lt;font style=&quot;font-size: 20px&quot;&gt;交易2&lt;br&gt;主要组成部分&lt;/font&gt;" style="text;html=1;strokeColor=none;fillColor=none;align=center;verticalAlign=middle;whiteSpace=wrap;rounded=0;" vertex="1" parent="PxN26HUbAXa41XjV211Z-14">
          <mxGeometry width="170" height="60" as="geometry" />
        </mxCell>
        <mxCell id="PxN26HUbAXa41XjV211Z-20" style="edgeStyle=none;rounded=0;orthogonalLoop=1;jettySize=auto;html=1;exitX=0.5;exitY=1;exitDx=0;exitDy=0;entryX=0.5;entryY=0;entryDx=0;entryDy=0;" edge="1" parent="1" source="PxN26HUbAXa41XjV211Z-10" target="PxN26HUbAXa41XjV211Z-16">
          <mxGeometry relative="1" as="geometry" />
        </mxCell>
      </root>
    </mxGraphModel>
  </diagram>
</mxfile>
